<svg width="32" height="32" viewBox="0 0 32 32" fill="none" xmlns="http://www.w3.org/2000/svg">
<path fill-rule="evenodd" clip-rule="evenodd" d="M2.59058 2.08639C2.33902 2.19783 2.07652 2.51677 2.03021 2.76733C2.00977 2.87808 2.00158 3.73308 2.01208 4.66733L2.03121 6.36602L2.16008 6.53845C2.23096 6.63333 2.36658 6.76889 2.46152 6.83977L2.63415 6.96864H2.99996H3.36577L3.5384 6.83977C3.63333 6.76889 3.76852 6.63389 3.83877 6.5397L3.96658 6.36858L3.99046 5.89645L4.01427 5.42439L5.27277 6.67595L6.53121 7.92745L6.76558 7.97064C7.1419 8.03995 7.43733 7.95227 7.69483 7.69477C7.95233 7.43726 8.04002 7.14183 7.97071 6.76552L7.92752 6.53114L6.67602 5.2727L5.42446 4.0142L5.89652 3.99039L6.36865 3.96652L6.53977 3.8387C6.63396 3.76845 6.76896 3.63327 6.83983 3.53833L6.96871 3.3657V2.99989V2.63408L6.83983 2.46145C6.76896 2.36652 6.6334 2.23089 6.53852 2.16002L6.36602 2.03114L4.57365 2.01652L2.78121 2.00195L2.59058 2.08639ZM25.5906 2.08639C25.0041 2.3462 24.8208 3.14052 25.2339 3.63158C25.4565 3.89602 25.7286 3.99989 26.1991 3.99989H26.5897L25.331 5.26552L24.0724 6.53114L24.0292 6.76552C23.9599 7.14183 24.0476 7.43726 24.3051 7.69477C24.5626 7.95227 24.858 8.03995 25.2343 7.97064L25.4687 7.92745L26.7271 6.67595L27.9856 5.42439L28.0095 5.89645L28.0333 6.36858L28.1611 6.5397C28.2314 6.63389 28.3666 6.76889 28.4615 6.83977L28.6341 6.96864H29H29.3658L29.5384 6.83977C29.6333 6.76889 29.769 6.63327 29.8398 6.53833L29.9687 6.3657V4.49989V2.63408L29.8398 2.46145C29.769 2.36652 29.6334 2.23089 29.5385 2.16002L29.366 2.03114L27.5736 2.01652L25.7812 2.00195L25.5906 2.08639ZM14.75 6.09302C12.2184 6.52658 10.2005 7.95245 8.95552 10.1874C8.65277 10.731 8.3389 11.5934 8.15246 12.3943L7.98065 13.1323L8.0684 13.2163C8.28383 13.4221 9.97096 14.8124 10.0054 14.8124C10.0266 14.8124 10.5051 14.4157 11.0688 13.9309L12.0937 13.0493L12.199 12.7441C12.4045 12.1486 12.7148 11.6589 13.189 11.1815L13.6605 10.7068L14.1899 10.4445C14.4811 10.3002 14.895 10.1488 15.1096 10.108C15.3243 10.0671 15.5 10.0114 15.5 9.98395C15.5 9.95658 15.1625 9.5407 14.75 9.05983L14 8.18552V8.00164V7.81783L14.7059 6.98702C15.0941 6.53002 15.4333 6.12102 15.4596 6.07802C15.5187 5.98133 15.3856 5.98414 14.75 6.09302ZM16.0049 6.98164C15.5553 7.52164 15.1875 7.97864 15.1876 7.99727C15.1877 8.01589 15.5855 8.4952 16.0716 9.06239L16.9554 10.0936L17.3128 10.2233C18.6302 10.7011 19.623 11.8311 19.8911 13.1581L19.9756 13.5758L20.8971 12.7878L21.8187 11.9999H22.0008H22.183L23.0692 12.7513C23.5567 13.1645 23.9673 13.491 23.9816 13.4766C23.996 13.4622 23.9765 13.2229 23.9385 12.9448C23.472 9.53827 20.9226 6.80964 17.5673 6.12589C17.2273 6.05658 16.9206 5.99989 16.8857 5.99989C16.8509 5.99989 16.4545 6.4417 16.0049 6.98164ZM20.9375 14.0697L19.9062 14.9518L19.747 15.3352C19.4928 15.9475 19.2498 16.3151 18.8121 16.7499C18.0758 17.4813 17.1083 17.9126 16.0468 17.9824C15.7461 18.0022 15.5 18.029 15.5 18.042C15.5 18.055 15.8375 18.4591 16.25 18.94L17 19.8143V19.9999V20.1855L16.25 21.0598C15.8375 21.5407 15.5 21.949 15.5 21.967C15.5 22.0328 16.281 21.9975 16.9176 21.903C19.1296 21.5746 21.0921 20.4255 22.3912 18.6982C22.915 18.0019 23.2818 17.3239 23.5531 16.5508C23.7206 16.0735 23.9375 15.1427 23.9375 14.9011C23.9375 14.8238 22.0926 13.1872 22.0059 13.1876C21.9855 13.1876 21.5046 13.5846 20.9375 14.0697ZM11.104 15.213L10.1836 15.9999H10.0024H9.82115L8.94765 15.2499C8.46727 14.8374 8.06015 14.4999 8.04302 14.4999C7.95333 14.4999 8.19765 15.8278 8.4124 16.5077L8.5679 16.9999H10.9788H13.3896L13.1359 16.7461C12.6393 16.2496 12.2449 15.5074 12.1 14.7971L12.0243 14.4261L11.104 15.213ZM2.59058 18.0878C2.34002 18.197 2.07683 18.5158 2.02971 18.7673C2.00896 18.8781 2.00083 19.5081 2.01158 20.1674L2.03121 21.3661L2.16008 21.5385C2.23096 21.6333 2.36658 21.7689 2.46152 21.8398L2.63408 21.9686L8.37702 21.9852L14.1199 22.0018L14.9662 21.0169C15.4316 20.4752 15.8125 20.0175 15.8125 19.9999C15.8125 19.9823 15.432 19.525 14.967 18.9838L14.1216 17.9999L8.4514 18.0023L2.78121 18.0048L2.59058 18.0878ZM23.9518 18.1948C23.1839 19.6196 21.8479 21.0106 20.5312 21.7563L20.1562 21.9686L23.7497 21.9848L27.3433 22.001L27.6102 21.8598C27.757 21.7821 28.3403 21.4017 28.9064 21.0143L29.9357 20.31L29.9768 20.1461C30.0611 19.8102 29.949 19.6963 28.7 18.8492L27.4938 18.0311L25.7768 18.0127L24.0599 17.9942L23.9518 18.1948ZM6.62496 24.069C6.53902 24.1026 5.91652 24.6809 5.24158 25.3541L4.0144 26.578L3.99052 26.1046L3.96658 25.6312L3.83877 25.4601C3.76852 25.3659 3.63333 25.2309 3.5384 25.16L3.36577 25.0311H2.99996H2.63415L2.46152 25.16C2.36658 25.2309 2.23096 25.3665 2.16008 25.4615L2.03121 25.6341V27.4999V29.3657L2.16008 29.5383C2.23096 29.6333 2.36658 29.7689 2.46152 29.8398L2.63415 29.9686H4.49996H6.36577L6.5384 29.8398C6.63333 29.7689 6.76896 29.6333 6.83983 29.5383L6.96871 29.3657V28.9999V28.6341L6.83983 28.4615C6.76896 28.3665 6.63396 28.2313 6.53977 28.1611L6.36865 28.0333L5.89652 28.0094L5.42446 27.9856L6.67602 26.7271L7.92752 25.4686L7.97071 25.2343C8.11996 24.4241 7.37208 23.7766 6.62496 24.069ZM24.5906 24.0878C24.1726 24.2699 23.9393 24.7463 24.0292 25.2343L24.0724 25.4686L25.3239 26.7271L26.5755 27.9856L26.1034 28.0094L25.6313 28.0333L25.4601 28.1611C25.366 28.2313 25.231 28.3665 25.1601 28.4615L25.0312 28.6341V28.9999V29.3657L25.1601 29.5383C25.231 29.6333 25.3666 29.7689 25.4615 29.8398L25.6341 29.9686H27.5H29.3658L29.5384 29.8398C29.6333 29.7689 29.769 29.6333 29.8398 29.5383L29.9687 29.3657V27.4999V25.6341L29.8398 25.4615C29.769 25.3665 29.6333 25.2309 29.5384 25.16L29.3658 25.0311H29H28.6341L28.4615 25.16C28.3666 25.2309 28.2314 25.3659 28.1611 25.4601L28.0333 25.6312L28.0094 26.1046L27.9855 26.578L26.7583 25.3545C26.0834 24.6815 25.452 24.1014 25.3553 24.0654C25.12 23.9778 24.8231 23.9865 24.5906 24.0878Z" fill="#9747FF"/>
<path fill-rule="evenodd" clip-rule="evenodd" d="M2.59065 2.08639C2.33908 2.19783 2.07658 2.51677 2.03027 2.76733C2.00983 2.87808 2.00165 3.73308 2.01215 4.66733L2.03127 6.36602L2.16015 6.53845C2.23102 6.63333 2.36665 6.76889 2.46158 6.83977L2.63421 6.96864H3.00002H3.36583L3.53846 6.83977C3.6334 6.76889 3.76858 6.63389 3.83883 6.5397L3.96665 6.36858L3.99052 5.89645L4.01433 5.42439L5.27283 6.67595L6.53127 7.92745L6.76565 7.97064C7.14196 8.03995 7.4374 7.95227 7.6949 7.69477C7.9524 7.43726 8.04008 7.14183 7.97077 6.76552L7.92759 6.53114L6.67608 5.2727L5.42452 4.0142L5.89658 3.99039L6.36871 3.96652L6.53983 3.8387C6.63402 3.76845 6.76902 3.63327 6.8399 3.53833L6.96877 3.3657V2.99989V2.63408L6.8399 2.46145C6.76902 2.36652 6.63346 2.23089 6.53858 2.16002L6.36609 2.03114L4.57371 2.01652L2.78127 2.00195L2.59065 2.08639ZM25.5906 2.08639C25.0042 2.3462 24.8208 3.14052 25.234 3.63158C25.4565 3.89602 25.7287 3.99989 26.1991 3.99989H26.5898L25.3311 5.26552L24.0725 6.53114L24.0293 6.76552C23.96 7.14183 24.0476 7.43726 24.3051 7.69477C24.5626 7.95227 24.8581 8.03995 25.2344 7.97064L25.4688 7.92745L26.7272 6.67595L27.9857 5.42439L28.0095 5.89645L28.0334 6.36858L28.1612 6.5397C28.2315 6.63389 28.3666 6.76889 28.4616 6.83977L28.6342 6.96864H29H29.3658L29.5385 6.83977C29.6334 6.76889 29.769 6.63327 29.8399 6.53833L29.9688 6.3657V4.49989V2.63408L29.8399 2.46145C29.769 2.36652 29.6335 2.23089 29.5386 2.16002L29.3661 2.03114L27.5737 2.01652L25.7813 2.00195L25.5906 2.08639ZM6.62502 24.069C6.53908 24.1026 5.91658 24.6809 5.24165 25.3541L4.01446 26.578L3.99058 26.1046L3.96665 25.6312L3.83883 25.4601C3.76858 25.3659 3.6334 25.2309 3.53846 25.16L3.36583 25.0311H3.00002H2.63421L2.46158 25.16C2.36665 25.2309 2.23102 25.3665 2.16015 25.4615L2.03127 25.6341V27.4999V29.3657L2.16015 29.5383C2.23102 29.6333 2.36665 29.7689 2.46158 29.8398L2.63421 29.9686H4.50002H6.36583L6.53846 29.8398C6.6334 29.7689 6.76902 29.6333 6.8399 29.5383L6.96877 29.3657V28.9999V28.6341L6.8399 28.4615C6.76902 28.3665 6.63402 28.2313 6.53983 28.1611L6.36871 28.0333L5.89658 28.0094L5.42452 27.9856L6.67608 26.7271L7.92759 25.4686L7.97077 25.2343C8.12002 24.4241 7.37215 23.7766 6.62502 24.069ZM24.5906 24.0878C24.1726 24.2699 23.9394 24.7463 24.0293 25.2343L24.0725 25.4686L25.324 26.7271L26.5755 27.9856L26.1035 28.0094L25.6313 28.0333L25.4602 28.1611C25.366 28.2313 25.231 28.3665 25.1601 28.4615L25.0313 28.6341V28.9999V29.3657L25.1601 29.5383C25.231 29.6333 25.3666 29.7689 25.4616 29.8398L25.6342 29.9686H27.5H29.3658L29.5385 29.8398C29.6334 29.7689 29.769 29.6333 29.8399 29.5383L29.9688 29.3657V27.4999V25.6341L29.8399 25.4615C29.769 25.3665 29.6334 25.2309 29.5385 25.16L29.3658 25.0311H29H28.6342L28.4616 25.16C28.3666 25.2309 28.2315 25.3659 28.1612 25.4601L28.0334 25.6312L28.0095 26.1046L27.9856 26.578L26.7584 25.3545C26.0835 24.6815 25.4521 24.1014 25.3553 24.0654C25.1201 23.9778 24.8232 23.9865 24.5906 24.0878Z" fill="white"/>
</svg>
