<svg width="32" height="32" viewBox="0 0 32 32" fill="none" xmlns="http://www.w3.org/2000/svg">
<path fill-rule="evenodd" clip-rule="evenodd" d="M1.47456 1.14844C1.34025 1.22975 1.17969 1.39131 1.11781 1.5075L1.00525 1.71875L1.00262 3.07812L1 4.4375H16H31V3.09125V1.745L30.8742 1.49838C30.7932 1.33956 30.6604 1.20681 30.5016 1.12581L30.255 1L15.9869 1.00031L1.71875 1.00063L1.47456 1.14844ZM19.9327 2.43269L19.75 2.61538V2.90625V3.19712L19.9327 3.37981L20.1154 3.5625L20.3858 3.56113C20.7827 3.55906 21.0625 3.28825 21.0625 2.90625C21.0625 2.52425 20.7827 2.25344 20.3858 2.25137L20.1154 2.25L19.9327 2.43269ZM23.125 2.5625C22.9615 2.726 22.9592 3.08419 23.1205 3.2455C23.1868 3.31175 23.3626 3.38375 23.5111 3.4055C23.6597 3.42725 24.8876 3.43631 26.2399 3.42563L28.6984 3.40625L28.8493 3.23088C29.0342 3.01581 29.0408 2.81875 28.8704 2.60219L28.7409 2.4375H25.9954H23.25L23.125 2.5625ZM1 17.8463V30.255L1.11856 30.4874C1.18812 30.6238 1.34013 30.7776 1.48644 30.8599L1.73575 31H15.9954H30.255L30.4874 30.8814C30.6238 30.8119 30.7776 30.6599 30.8599 30.5136L31 30.2642V17.8509V5.4375H16H1V17.8463ZM2.49587 7.682L2.3125 7.86538V11.9688V16.0721L2.49587 16.2555L2.67925 16.4388L11.0951 16.4226L19.5111 16.4062L19.6305 16.2587L19.75 16.1111V11.9688V7.82638L19.6305 7.67881L19.5111 7.53125L11.0951 7.51494L2.67925 7.49869L2.49587 7.682ZM24.8438 8.4505C24.775 8.48994 24.6845 8.56638 24.6426 8.62044L24.5665 8.71875V10.7812V12.8438L24.6426 12.9429C24.6845 12.9974 24.7802 13.0748 24.8552 13.1148L24.9918 13.1875H27.0007H29.0096L29.1923 13.0048L29.375 12.8221V10.7812V8.74037L29.1923 8.55769L29.0096 8.375L26.9892 8.37687C25.5871 8.37825 24.9305 8.40075 24.8438 8.4505ZM5.75 8.86112C6.14531 9.054 7.49819 9.70844 8.75638 10.3154L11.044 11.419L13.992 9.99994C15.6134 9.21944 16.9582 8.56269 16.9804 8.54044C17.0026 8.51819 14.3232 8.50238 11.0261 8.50525L5.03125 8.51044L5.75 8.86112ZM3.3125 11.9688C3.3125 13.7047 3.32188 15.125 3.33337 15.125C3.35169 15.125 5.71906 13.9867 8.86913 12.4631L9.8945 11.9672L7.30662 10.7226C5.88331 10.0381 4.41287 9.32831 4.03906 9.14531C3.66525 8.96225 3.34888 8.8125 3.33594 8.8125C3.32306 8.8125 3.3125 10.2328 3.3125 11.9688ZM15.5 10.3786C13.7297 11.2303 12.2897 11.9504 12.3 11.9791C12.3103 12.0078 13.7587 12.7239 15.5188 13.5704L18.7188 15.1094L18.7354 13.5191C18.7446 12.6444 18.7446 11.2316 18.7354 10.3795L18.7188 8.83019L15.5 10.3786ZM25.5625 10.7812V12.1875H26.9688H28.375V10.7812V9.375H26.9688H25.5625V10.7812ZM8.34375 13.8147C6.93437 14.4971 5.6125 15.1398 5.40625 15.2428L5.03125 15.43L11.0312 15.4306L17.0312 15.4312L16.5312 15.1754C15.2081 14.4986 11.1147 12.5632 11.017 12.5682C10.9561 12.5714 9.75313 13.1323 8.34375 13.8147ZM24.8438 15.3255C24.775 15.3649 24.6845 15.4414 24.6426 15.4954L24.5665 15.5938V17.6562V19.7188L24.6426 19.8179C24.6845 19.8724 24.7802 19.9498 24.8552 19.9898L24.9918 20.0625H27.0007H29.0096L29.1923 19.8798L29.375 19.6971V17.6562V15.6154L29.1923 15.4327L29.0096 15.25L26.9892 15.2519C25.5871 15.2533 24.9305 15.2757 24.8438 15.3255ZM25.5625 17.6562V19.0625H26.9688H28.375V17.6562V16.25H26.9688H25.5625V17.6562ZM2.52275 18.8856C2.44931 18.9211 2.35794 19.019 2.31962 19.1031L2.25 19.2559V23.2182V27.1805L2.40081 27.3559L2.55169 27.5312H6.84375H11.1358L11.2867 27.3559L11.4375 27.1805V23.1792V19.1779L11.2548 18.9952L11.0721 18.8125L6.86419 18.8167C4.10244 18.8195 2.61037 18.8432 2.52275 18.8856ZM14.3268 19.7918C14.2304 19.8306 14.0625 20.1426 14.0625 20.2829C14.0625 20.3389 14.1447 20.4668 14.2452 20.5673L14.4279 20.75H18.4358H22.4437L22.6205 20.6586C22.9206 20.5034 22.9679 20.1497 22.7216 19.9034L22.5682 19.75L18.4872 19.7549C16.2427 19.7576 14.3705 19.7743 14.3268 19.7918ZM4.8125 20.5686C5.24219 20.9811 5.8645 21.5702 6.19537 21.8778L6.79706 22.437L8.13288 21.2122C8.86763 20.5387 9.50994 19.9481 9.56025 19.9L9.65181 19.8125L6.8415 19.8156L4.03125 19.8188L4.8125 20.5686ZM12.7909 19.9268C12.5449 20.1986 12.7526 20.6875 13.1141 20.6875C13.4874 20.6875 13.6983 20.1983 13.4375 19.9375C13.2779 19.7779 12.9309 19.7722 12.7909 19.9268ZM3.25 23.0896V25.7046L3.54688 25.4301C3.71012 25.2791 4.32894 24.7085 4.92188 24.1621C5.51481 23.6157 6 23.1481 6 23.1229C6 23.0858 4.65613 21.788 3.48438 20.6936L3.25 20.4746V23.0896ZM8.97 21.7821C8.21444 22.4822 7.58781 23.0802 7.5775 23.1112C7.56725 23.1421 8.01669 23.6006 8.57625 24.1302C9.13587 24.6597 9.78356 25.2736 10.0156 25.4942L10.4375 25.8955V23.1978C10.4375 21.714 10.4164 20.5021 10.3906 20.5046C10.3649 20.5072 9.72556 21.0821 8.97 21.7821ZM24.8438 22.2005C24.775 22.2399 24.6845 22.3164 24.6426 22.3704L24.5665 22.4688V24.5312V26.5938L24.6426 26.6929C24.6845 26.7474 24.7802 26.8248 24.8552 26.8648L24.9918 26.9375H27.0007H29.0096L29.1923 26.7548L29.375 26.5721V24.5312V22.4904L29.1923 22.3077L29.0096 22.125L26.9892 22.1269C25.5871 22.1283 24.9305 22.1508 24.8438 22.2005ZM14.3763 22.5796C14.0537 22.7443 13.9932 23.1652 14.2596 23.3906L14.3889 23.5H18.5024H22.6159L22.7454 23.3353C22.9223 23.1105 22.9105 22.8676 22.7138 22.6828L22.5525 22.5312L18.5419 22.5158L14.5312 22.5004L14.3763 22.5796ZM12.9184 22.6319C12.621 22.8049 12.6683 23.3001 12.9951 23.4355L13.167 23.5067L13.3266 23.4339C13.4855 23.3616 13.625 23.1414 13.625 22.9629C13.625 22.8188 13.3352 22.5623 13.1747 22.5644C13.0958 22.5654 12.9805 22.5958 12.9184 22.6319ZM25.5625 24.5312V25.9375H26.9688H28.375V24.5312V23.125H26.9688H25.5625V24.5312ZM5.33956 25.1346C4.55125 25.8573 3.89687 26.4742 3.88544 26.5055C3.87306 26.5393 5.03694 26.5625 6.74481 26.5625C8.32888 26.5625 9.62225 26.5414 9.61887 26.5156C9.61294 26.4697 7.84731 24.7854 7.13375 24.1448L6.77281 23.8207L5.33956 25.1346ZM14.2626 25.4393C13.9953 25.6882 14.0266 26.0168 14.337 26.2201L14.4821 26.3152L18.5591 26.2982L22.6361 26.2812L22.7556 26.1337C22.9219 25.9283 22.9078 25.6521 22.7216 25.4659L22.5682 25.3125H18.4834H14.3986L14.2626 25.4393ZM12.7909 25.4893C12.5449 25.7611 12.7526 26.25 13.1141 26.25C13.4874 26.25 13.6983 25.7608 13.4375 25.5C13.2779 25.3404 12.9309 25.3347 12.7909 25.4893Z" fill="#9747FF"/>
<path fill-rule="evenodd" clip-rule="evenodd" d="M5.75 8.86112C6.14531 9.054 7.49819 9.70844 8.75638 10.3154L11.044 11.419L13.992 9.99994C15.6134 9.21944 16.9582 8.56269 16.9804 8.54044C17.0026 8.51819 14.3232 8.50238 11.0261 8.50525L5.03125 8.51044L5.75 8.86112ZM3.3125 11.9688C3.3125 13.7047 3.32188 15.125 3.33337 15.125C3.35169 15.125 5.71906 13.9867 8.86913 12.4631L9.8945 11.9672L7.30662 10.7226C5.88331 10.0381 4.41287 9.32831 4.03906 9.14531C3.66525 8.96225 3.34888 8.8125 3.33594 8.8125C3.32306 8.8125 3.3125 10.2328 3.3125 11.9688ZM15.5 10.3786C13.7297 11.2302 12.2897 11.9504 12.3 11.9791C12.3103 12.0078 13.7587 12.7239 15.5188 13.5704L18.7188 15.1094L18.7354 13.5191C18.7446 12.6444 18.7446 11.2316 18.7354 10.3795L18.7188 8.83019L15.5 10.3786ZM25.5625 10.7812V12.1875H26.9688H28.375V10.7812V9.375H26.9688H25.5625V10.7812ZM8.34375 13.8147C6.93437 14.4971 5.6125 15.1398 5.40625 15.2428L5.03125 15.43L11.0312 15.4306L17.0312 15.4312L16.5312 15.1754C15.2081 14.4986 11.1147 12.5632 11.017 12.5682C10.9561 12.5714 9.75313 13.1323 8.34375 13.8147ZM25.5625 17.6562V19.0625H26.9688H28.375V17.6562V16.25H26.9688H25.5625V17.6562ZM4.8125 20.5686C5.24219 20.9811 5.8645 21.5702 6.19537 21.8778L6.79706 22.437L8.13288 21.2122C8.86763 20.5387 9.50994 19.9481 9.56025 19.9L9.65181 19.8125L6.8415 19.8156L4.03125 19.8188L4.8125 20.5686ZM3.25 23.0896V25.7046L3.54688 25.4301C3.71012 25.2791 4.32894 24.7085 4.92188 24.1621C5.51481 23.6157 6 23.1481 6 23.1229C6 23.0858 4.65613 21.788 3.48438 20.6936L3.25 20.4746V23.0896ZM8.97 21.7821C8.21444 22.4822 7.58781 23.0802 7.5775 23.1112C7.56725 23.1421 8.01669 23.6006 8.57625 24.1302C9.13587 24.6597 9.78356 25.2736 10.0156 25.4942L10.4375 25.8955V23.1978C10.4375 21.714 10.4164 20.5021 10.3906 20.5046C10.3649 20.5072 9.72556 21.0821 8.97 21.7821ZM25.5625 24.5312V25.9375H26.9688H28.375V24.5312V23.125H26.9688H25.5625V24.5312ZM5.33956 25.1346C4.55125 25.8573 3.89687 26.4742 3.88544 26.5055C3.87306 26.5393 5.03694 26.5625 6.74481 26.5625C8.32888 26.5625 9.62225 26.5414 9.61887 26.5156C9.61294 26.4697 7.84731 24.7854 7.13375 24.1448L6.77281 23.8207L5.33956 25.1346Z" fill="white"/>
</svg>
