<svg width="32" height="32" viewBox="0 0 32 32" fill="none" xmlns="http://www.w3.org/2000/svg">
<path fill-rule="evenodd" clip-rule="evenodd" d="M2.29925 1.38479C2.17169 1.42004 1.94012 1.56072 1.78475 1.69747L1.50231 1.94616L1.40737 2.26566L1.3125 2.58522V16.4147V30.2442L1.38188 30.3965C1.42006 30.4802 1.51981 30.58 1.60356 30.6182L1.75587 30.6875H15.569H29.3821L29.6737 30.6141L29.9653 30.5407L30.2547 30.2512L30.5443 29.9618L30.6191 29.6499C30.7664 29.0355 30.4921 28.4443 29.9294 28.164L29.6004 28H16.8002H4V15.1947V2.38929L3.82538 2.05504L3.65075 1.72072L3.37225 1.55172C3.05213 1.35747 2.634 1.29241 2.29925 1.38479ZM17.5938 1.35104C14.4905 1.66572 11.9999 3.35266 10.6511 6.05329C10.1692 7.0181 9.8125 8.37272 9.8125 9.23779V9.57847L10.0781 9.33497C11.1522 8.35054 13.4557 6.97029 14.9062 6.44204C15.5644 6.20235 16.8159 5.87372 17.0536 5.8781L17.2188 5.88116L16.8317 6.03016C15.6014 6.50372 14.675 7.53422 14.3492 8.79135C14.2347 9.23354 14.2189 10.1547 14.3177 10.6376C14.3551 10.8197 14.5105 11.2293 14.6632 11.5477L14.941 12.1265L15.3938 12.5793C15.8454 13.031 16.4413 13.4045 17.018 13.5974L17.2812 13.6855L16.9502 13.6527C15.7626 13.5352 13.7722 12.7374 12.1369 11.7236C11.4629 11.3057 10.3898 10.5242 10.0389 10.1957L9.7965 9.96879L9.83481 10.5625C9.92769 12.0018 10.5419 13.5945 11.4897 14.8538L11.9206 15.4262L11.4759 15.8653L11.0312 16.3045L10.8438 16.2025C10.7207 16.1355 10.5059 16.1007 10.2188 16.101L9.78125 16.1016L9.46875 16.2648L9.15625 16.428L7.42531 18.1671L5.69438 19.9063L5.56731 20.1875C5.48188 20.3767 5.44 20.6018 5.4395 20.875L5.43875 21.2813L5.58669 21.5938C5.8805 22.2142 6.43087 22.5598 7.125 22.5598C7.39956 22.5598 7.62244 22.5186 7.8125 22.4327L8.09375 22.3057L9.83294 20.5747L11.5721 18.8438L11.7353 18.5313L11.8984 18.2188L11.899 17.7813C11.8993 17.4941 11.8645 17.2793 11.7976 17.1563L11.6956 16.9688L12.1347 16.5242L12.5738 16.0795L13.1462 16.5101C15.1688 18.0316 17.7579 18.5642 20.2359 17.9686C22.7793 17.3572 24.9373 15.5349 25.9671 13.129C26.3508 12.2324 26.5356 11.4682 26.6536 10.2893L26.6904 9.92235L26.3309 10.2509C25.5538 10.9612 23.772 12.1113 22.6107 12.6523C21.7442 13.0558 20.8604 13.3707 20.1255 13.5374C19.318 13.7206 19.0136 13.7325 19.5107 13.5613C20.2338 13.3125 20.9725 12.7784 21.4009 12.1948C22.9888 10.0316 22.1384 7.03166 19.6599 6.05347C19.0687 5.8201 19.3351 5.82079 20.2589 6.05497C21.5818 6.39029 22.8149 6.9271 24.2044 7.7726C24.9439 8.22254 26.1657 9.1111 26.4839 9.43035L26.6865 9.63366L26.6507 9.23872C26.4532 7.05597 25.6436 5.27704 24.1833 3.81672C22.6424 2.27579 20.7411 1.4476 18.5312 1.3546C18.1531 1.33872 17.7313 1.3371 17.5938 1.35104ZM17.9216 2.79691C17.7509 2.98779 17.7576 3.25766 17.9375 3.43754L18.0625 3.56254H18.3981C19.6037 3.56254 21.0796 4.10941 22.1201 4.94154C22.627 5.34697 22.8459 5.4041 23.0625 5.18754C23.3377 4.91229 23.1693 4.60497 22.4516 4.0731C21.3066 3.22454 19.7636 2.68754 18.4702 2.68754H18.0194L17.9216 2.79691ZM17.3008 5.85522C17.3459 5.87329 17.3998 5.87104 17.4206 5.85029C17.4413 5.82954 17.4044 5.81479 17.3386 5.81747C17.2657 5.82047 17.2509 5.83529 17.3008 5.85522ZM19.0508 5.85522C19.0959 5.87329 19.1498 5.87104 19.1706 5.85029C19.1913 5.82954 19.1544 5.81479 19.0886 5.81747C19.0157 5.82047 19.0009 5.83529 19.0508 5.85522ZM17.3816 6.78647C16.8739 6.92291 16.45 7.17691 16.0266 7.59816C15.0737 8.5461 14.854 9.9476 15.4634 11.1913C15.8227 11.9246 16.4244 12.4332 17.2678 12.7163L17.7408 12.875L18.1985 12.8743C19.0653 12.8729 19.8047 12.5692 20.4056 11.968C21.0249 11.3483 21.3125 10.6549 21.3125 9.78129C21.3125 8.90897 21.0269 8.21997 20.4062 7.59447C19.9832 7.16829 19.5682 6.92379 19.0291 6.78335C18.5739 6.66479 17.8288 6.66616 17.3816 6.78647ZM17.3633 13.7302C17.4084 13.7483 17.4623 13.746 17.4831 13.7253C17.5038 13.7045 17.4669 13.6898 17.4011 13.6925C17.3282 13.6955 17.3134 13.7103 17.3633 13.7302ZM18.9883 13.7302C19.0334 13.7483 19.0873 13.746 19.1081 13.7253C19.1288 13.7045 19.0919 13.6898 19.0261 13.6925C18.9532 13.6955 18.9384 13.7103 18.9883 13.7302ZM23.2223 18.389L23.125 18.5278V22.6969V26.866L23.2936 26.9986L23.4622 27.1312L24.9478 27.1125L26.4333 27.0938L26.5448 26.9822L26.6562 26.8706L26.6732 22.7267L26.6901 18.5827L26.5592 18.4163L26.4284 18.25H24.874H23.3196L23.2223 18.389ZM16.1534 20.591L16 20.7443V23.7813V26.8182L16.1534 26.9716L16.3068 27.125H17.7812H19.2557L19.4091 26.9716L19.5625 26.8182V23.7813V20.7443L19.4091 20.591L19.2557 20.4375H17.7812H16.3068L16.1534 20.591ZM9.0875 22.2978C8.89356 22.4273 8.875 22.6388 8.875 24.7175V26.8182L9.02844 26.9716L9.18181 27.125H10.6562H12.1307L12.2841 26.9716L12.4375 26.8182V24.6591V22.5L12.3125 22.375L12.1875 22.25L10.6719 22.251C9.83831 22.2515 9.12531 22.2726 9.0875 22.2978Z" fill="#9747FF"/>
<path fill-rule="evenodd" clip-rule="evenodd" d="M23.2223 18.3889L23.125 18.5278V22.6969V26.8659L23.2936 26.9986L23.4622 27.1311L24.9478 27.1124L26.4333 27.0938L26.5448 26.9822L26.6562 26.8706L26.6732 22.7266L26.6901 18.5826L26.5592 18.4163L26.4284 18.25H24.874H23.3196L23.2223 18.3889ZM16.1534 20.5909L16 20.7443V23.7812V26.8182L16.1534 26.9716L16.3068 27.125H17.7812H19.2557L19.4091 26.9716L19.5625 26.8182V23.7812V20.7443L19.4091 20.5909L19.2557 20.4375H17.7812H16.3068L16.1534 20.5909ZM9.0875 22.2978C8.89356 22.4273 8.875 22.6388 8.875 24.7175V26.8182L9.02844 26.9716L9.18181 27.125H10.6562H12.1307L12.2841 26.9716L12.4375 26.8182V24.6591V22.5L12.3125 22.375L12.1875 22.25L10.6719 22.2509C9.83831 22.2515 9.12531 22.2726 9.0875 22.2978Z" fill="white"/>
</svg>
